<?xml version="1.0" encoding="UTF-8" standalone="no"?>
<!DOCTYPE svg PUBLIC "-//W3C//DTD SVG 1.1//EN"
 "http://www.w3.org/Graphics/SVG/1.1/DTD/svg11.dtd">
<!-- Generated by graphviz version 2.40.1 (20161225.0304)
 -->
<!-- Title: dependencies Pages: 1 -->
<svg width="504pt" height="211pt"
 viewBox="0.00 0.00 504.00 211.00" xmlns="http://www.w3.org/2000/svg" xmlns:xlink="http://www.w3.org/1999/xlink">
<g id="graph0" class="graph" transform="scale(1 1) rotate(0) translate(4 207)">
<title>dependencies</title>
<polygon fill="#ffffff" stroke="transparent" points="-4,4 -4,-207 500,-207 500,4 -4,4"/>
<text text-anchor="start" x="227.0091" y="-42.4" font-family="sans-serif" font-weight="bold" font-size="14.00" fill="#000000">Legend</text>
<polygon fill="#ffffb3" stroke="transparent" points="14,-10 14,-30 34,-30 34,-10 14,-10"/>
<text text-anchor="start" x="37.629" y="-15.4" font-family="sans-serif" font-size="14.00" fill="#000000"> &#160;Declarations</text>
<polygon fill="#8dd3c7" stroke="transparent" points="127,-10 127,-30 147,-30 147,-10 127,-10"/>
<text text-anchor="start" x="150.7251" y="-15.4" font-family="sans-serif" font-size="14.00" fill="#000000"> &#160;Module</text>
<polygon fill="#80b1d3" stroke="transparent" points="213,-10 213,-30 233,-30 233,-10 213,-10"/>
<text text-anchor="start" x="236.7812" y="-15.4" font-family="sans-serif" font-size="14.00" fill="#000000"> &#160;Bootstrap</text>
<polygon fill="#fdb462" stroke="transparent" points="310,-10 310,-30 330,-30 330,-10 310,-10"/>
<text text-anchor="start" x="333.6732" y="-15.4" font-family="sans-serif" font-size="14.00" fill="#000000"> &#160;Providers</text>
<polygon fill="#fb8072" stroke="transparent" points="406,-10 406,-30 426,-30 426,-10 406,-10"/>
<text text-anchor="start" x="429.7258" y="-15.4" font-family="sans-serif" font-size="14.00" fill="#000000"> &#160;Exports</text>
<g id="clust1" class="cluster">
<title>cluster_PageNotFoundModule</title>
<polygon fill="none" stroke="#000000" stroke-dasharray="1,5" points="25,-70 25,-195 471,-195 471,-70 25,-70"/>
</g>
<g id="clust2" class="cluster">
<title>cluster_PageNotFoundModule_declarations</title>
<polygon fill="none" stroke="#000000" points="239,-78 239,-130 463,-130 463,-78 239,-78"/>
</g>
<g id="clust4" class="cluster">
<title>cluster_PageNotFoundModule_imports</title>
<polygon fill="none" stroke="#000000" points="33,-78 33,-130 231,-130 231,-78 33,-78"/>
</g>
<!-- PagenotfoundInterfaceComponent -->
<g id="node1" class="node">
<title>PagenotfoundInterfaceComponent</title>
<polygon fill="#ffffb3" stroke="#000000" points="455.3263,-122 246.6737,-122 246.6737,-86 455.3263,-86 455.3263,-122"/>
<text text-anchor="middle" x="351" y="-99.8" font-family="Times,serif" font-size="14.00" fill="#000000">PagenotfoundInterfaceComponent</text>
</g>
<!-- PageNotFoundModule -->
<g id="node2" class="node">
<title>PageNotFoundModule</title>
<polygon fill="#8dd3c7" stroke="#000000" points="312.5421,-187 309.5421,-191 288.5421,-191 285.5421,-187 169.4579,-187 169.4579,-151 312.5421,-151 312.5421,-187"/>
<text text-anchor="middle" x="241" y="-164.8" font-family="Times,serif" font-size="14.00" fill="#000000">PageNotFoundModule</text>
</g>
<!-- PagenotfoundInterfaceComponent&#45;&gt;PageNotFoundModule -->
<g id="edge1" class="edge">
<title>PagenotfoundInterfaceComponent&#45;&gt;PageNotFoundModule</title>
<path fill="none" stroke="#000000" d="M279.6788,-122.1061C279.6788,-122.1061 279.6788,-140.991 279.6788,-140.991"/>
<polygon fill="#000000" stroke="#000000" points="276.1789,-140.9909 279.6788,-150.991 283.1789,-140.991 276.1789,-140.9909"/>
</g>
<!-- PagenotfoundRoutingModule -->
<g id="node3" class="node">
<title>PagenotfoundRoutingModule</title>
<polygon fill="#8dd3c7" stroke="#000000" points="223.4311,-122 220.4311,-126 199.4311,-126 196.4311,-122 40.5689,-122 40.5689,-86 223.4311,-86 223.4311,-122"/>
<text text-anchor="middle" x="132" y="-99.8" font-family="Times,serif" font-size="14.00" fill="#000000">PagenotfoundRoutingModule</text>
</g>
<!-- PagenotfoundRoutingModule&#45;&gt;PageNotFoundModule -->
<g id="edge2" class="edge">
<title>PagenotfoundRoutingModule&#45;&gt;PageNotFoundModule</title>
<path fill="none" stroke="#000000" d="M196.2223,-122.1061C196.2223,-122.1061 196.2223,-140.991 196.2223,-140.991"/>
<polygon fill="#000000" stroke="#000000" points="192.7224,-140.9909 196.2223,-150.991 199.7224,-140.991 192.7224,-140.9909"/>
</g>
</g>
</svg>
