<?xml version="1.0" encoding="UTF-8" standalone="no"?>
<!DOCTYPE svg PUBLIC "-//W3C//DTD SVG 1.1//EN"
 "http://www.w3.org/Graphics/SVG/1.1/DTD/svg11.dtd">
<!-- Generated by graphviz version 2.40.1 (20161225.0304)
 -->
<!-- Title: dependencies Pages: 1 -->
<svg width="612pt" height="284pt"
 viewBox="0.00 0.00 612.00 284.00" xmlns="http://www.w3.org/2000/svg" xmlns:xlink="http://www.w3.org/1999/xlink">
<g id="graph0" class="graph" transform="scale(1 1) rotate(0) translate(4 280)">
<title>dependencies</title>
<polygon fill="#ffffff" stroke="transparent" points="-4,4 -4,-280 608,-280 608,4 -4,4"/>
<text text-anchor="start" x="281.0091" y="-42.4" font-family="sans-serif" font-weight="bold" font-size="14.00" fill="#000000">Legend</text>
<polygon fill="#ffffb3" stroke="transparent" points="68,-10 68,-30 88,-30 88,-10 68,-10"/>
<text text-anchor="start" x="91.629" y="-15.4" font-family="sans-serif" font-size="14.00" fill="#000000"> &#160;Declarations</text>
<polygon fill="#8dd3c7" stroke="transparent" points="181,-10 181,-30 201,-30 201,-10 181,-10"/>
<text text-anchor="start" x="204.7251" y="-15.4" font-family="sans-serif" font-size="14.00" fill="#000000"> &#160;Module</text>
<polygon fill="#80b1d3" stroke="transparent" points="267,-10 267,-30 287,-30 287,-10 267,-10"/>
<text text-anchor="start" x="290.7812" y="-15.4" font-family="sans-serif" font-size="14.00" fill="#000000"> &#160;Bootstrap</text>
<polygon fill="#fdb462" stroke="transparent" points="364,-10 364,-30 384,-30 384,-10 364,-10"/>
<text text-anchor="start" x="387.6732" y="-15.4" font-family="sans-serif" font-size="14.00" fill="#000000"> &#160;Providers</text>
<polygon fill="#fb8072" stroke="transparent" points="460,-10 460,-30 480,-30 480,-10 460,-10"/>
<text text-anchor="start" x="483.7258" y="-15.4" font-family="sans-serif" font-size="14.00" fill="#000000"> &#160;Exports</text>
<g id="clust1" class="cluster">
<title>cluster_UserInterfaceModule</title>
<polygon fill="none" stroke="#000000" stroke-dasharray="1,5" points="8,-70 8,-268 596,-268 596,-70 8,-70"/>
</g>
<g id="clust2" class="cluster">
<title>cluster_UserInterfaceModule_declarations</title>
<polygon fill="none" stroke="#000000" points="16,-78 16,-130 588,-130 588,-78 16,-78"/>
</g>
<g id="clust8" class="cluster">
<title>cluster_UserInterfaceModule_exports</title>
<polygon fill="none" stroke="#000000" points="229,-208 229,-260 405,-260 405,-208 229,-208"/>
</g>
<!-- FooterComponent -->
<g id="node1" class="node">
<title>FooterComponent</title>
<polygon fill="#ffffb3" stroke="#000000" points="579.8809,-122 462.1191,-122 462.1191,-86 579.8809,-86 579.8809,-122"/>
<text text-anchor="middle" x="521" y="-99.8" font-family="Times,serif" font-size="14.00" fill="#000000">FooterComponent</text>
</g>
<!-- UserInterfaceModule -->
<g id="node5" class="node">
<title>UserInterfaceModule</title>
<polygon fill="#8dd3c7" stroke="#000000" points="384.7073,-187 381.7073,-191 360.7073,-191 357.7073,-187 249.2927,-187 249.2927,-151 384.7073,-151 384.7073,-187"/>
<text text-anchor="middle" x="317" y="-164.8" font-family="Times,serif" font-size="14.00" fill="#000000">UserInterfaceModule</text>
</g>
<!-- FooterComponent&#45;&gt;UserInterfaceModule -->
<g id="edge1" class="edge">
<title>FooterComponent&#45;&gt;UserInterfaceModule</title>
<path fill="none" stroke="#000000" d="M521,-122.1061C521,-141.3391 521,-169 521,-169 521,-169 394.929,-169 394.929,-169"/>
<polygon fill="#000000" stroke="#000000" points="394.9291,-165.5001 384.929,-169 394.929,-172.5001 394.9291,-165.5001"/>
</g>
<!-- HeaderComponent -->
<g id="node2" class="node">
<title>HeaderComponent</title>
<polygon fill="#ffffb3" stroke="#000000" points="443.7437,-122 322.2563,-122 322.2563,-86 443.7437,-86 443.7437,-122"/>
<text text-anchor="middle" x="383" y="-99.8" font-family="Times,serif" font-size="14.00" fill="#000000">HeaderComponent</text>
</g>
<!-- HeaderComponent&#45;&gt;UserInterfaceModule -->
<g id="edge2" class="edge">
<title>HeaderComponent&#45;&gt;UserInterfaceModule</title>
<path fill="none" stroke="#000000" d="M353.4909,-122.1061C353.4909,-122.1061 353.4909,-140.991 353.4909,-140.991"/>
<polygon fill="#000000" stroke="#000000" points="349.991,-140.9909 353.4909,-150.991 356.991,-140.991 349.991,-140.9909"/>
</g>
<!-- NavComponent -->
<g id="node3" class="node">
<title>NavComponent</title>
<polygon fill="#ffffb3" stroke="#000000" points="304.1542,-122 199.8458,-122 199.8458,-86 304.1542,-86 304.1542,-122"/>
<text text-anchor="middle" x="252" y="-99.8" font-family="Times,serif" font-size="14.00" fill="#000000">NavComponent</text>
</g>
<!-- NavComponent&#45;&gt;UserInterfaceModule -->
<g id="edge3" class="edge">
<title>NavComponent&#45;&gt;UserInterfaceModule</title>
<path fill="none" stroke="#000000" d="M276.7367,-122.1061C276.7367,-122.1061 276.7367,-140.991 276.7367,-140.991"/>
<polygon fill="#000000" stroke="#000000" points="273.2367,-140.9909 276.7367,-150.991 280.2367,-140.991 273.2367,-140.9909"/>
</g>
<!-- UserInterfaceComponent -->
<g id="node4" class="node">
<title>UserInterfaceComponent</title>
<polygon fill="#ffffb3" stroke="#000000" points="181.9904,-122 24.0096,-122 24.0096,-86 181.9904,-86 181.9904,-122"/>
<text text-anchor="middle" x="103" y="-99.8" font-family="Times,serif" font-size="14.00" fill="#000000">UserInterfaceComponent</text>
</g>
<!-- UserInterfaceComponent&#45;&gt;UserInterfaceModule -->
<g id="edge4" class="edge">
<title>UserInterfaceComponent&#45;&gt;UserInterfaceModule</title>
<path fill="none" stroke="#000000" d="M103,-122.1061C103,-141.3391 103,-169 103,-169 103,-169 239.2891,-169 239.2891,-169"/>
<polygon fill="#000000" stroke="#000000" points="239.2891,-172.5001 249.2891,-169 239.289,-165.5001 239.2891,-172.5001"/>
</g>
<!-- UserInterfaceComponent  -->
<g id="node6" class="node">
<title>UserInterfaceComponent </title>
<polygon fill="#fb8072" stroke="#000000" points="397.4896,-252 236.5104,-252 236.5104,-216 397.4896,-216 397.4896,-252"/>
<text text-anchor="middle" x="317" y="-229.8" font-family="Times,serif" font-size="14.00" fill="#000000">UserInterfaceComponent </text>
</g>
<!-- UserInterfaceModule&#45;&gt;UserInterfaceComponent  -->
<g id="edge5" class="edge">
<title>UserInterfaceModule&#45;&gt;UserInterfaceComponent </title>
<path fill="none" stroke="#000000" stroke-dasharray="5,2" d="M317,-187.1061C317,-187.1061 317,-205.991 317,-205.991"/>
<polygon fill="#000000" stroke="#000000" points="313.5001,-205.9909 317,-215.991 320.5001,-205.991 313.5001,-205.9909"/>
</g>
</g>
</svg>
