<?xml version="1.0" encoding="UTF-8" standalone="no"?>
<!DOCTYPE svg PUBLIC "-//W3C//DTD SVG 1.1//EN"
 "http://www.w3.org/Graphics/SVG/1.1/DTD/svg11.dtd">
<!-- Generated by graphviz version 2.40.1 (20161225.0304)
 -->
<!-- Title: dependencies Pages: 1 -->
<svg width="504pt" height="211pt"
 viewBox="0.00 0.00 504.00 211.00" xmlns="http://www.w3.org/2000/svg" xmlns:xlink="http://www.w3.org/1999/xlink">
<g id="graph0" class="graph" transform="scale(1 1) rotate(0) translate(4 207)">
<title>dependencies</title>
<polygon fill="#ffffff" stroke="transparent" points="-4,4 -4,-207 500,-207 500,4 -4,4"/>
<text text-anchor="start" x="227.0091" y="-42.4" font-family="sans-serif" font-weight="bold" font-size="14.00" fill="#000000">Legend</text>
<polygon fill="#ffffb3" stroke="transparent" points="14,-10 14,-30 34,-30 34,-10 14,-10"/>
<text text-anchor="start" x="37.629" y="-15.4" font-family="sans-serif" font-size="14.00" fill="#000000"> &#160;Declarations</text>
<polygon fill="#8dd3c7" stroke="transparent" points="127,-10 127,-30 147,-30 147,-10 127,-10"/>
<text text-anchor="start" x="150.7251" y="-15.4" font-family="sans-serif" font-size="14.00" fill="#000000"> &#160;Module</text>
<polygon fill="#80b1d3" stroke="transparent" points="213,-10 213,-30 233,-30 233,-10 213,-10"/>
<text text-anchor="start" x="236.7812" y="-15.4" font-family="sans-serif" font-size="14.00" fill="#000000"> &#160;Bootstrap</text>
<polygon fill="#fdb462" stroke="transparent" points="310,-10 310,-30 330,-30 330,-10 310,-10"/>
<text text-anchor="start" x="333.6732" y="-15.4" font-family="sans-serif" font-size="14.00" fill="#000000"> &#160;Providers</text>
<polygon fill="#fb8072" stroke="transparent" points="406,-10 406,-30 426,-30 426,-10 406,-10"/>
<text text-anchor="start" x="429.7258" y="-15.4" font-family="sans-serif" font-size="14.00" fill="#000000"> &#160;Exports</text>
<g id="clust1" class="cluster">
<title>cluster_PrestationsModule</title>
<polygon fill="none" stroke="#000000" stroke-dasharray="1,5" points="44,-70 44,-195 452,-195 452,-70 44,-70"/>
</g>
<g id="clust2" class="cluster">
<title>cluster_PrestationsModule_declarations</title>
<polygon fill="none" stroke="#000000" points="236,-78 236,-130 444,-130 444,-78 236,-78"/>
</g>
<g id="clust4" class="cluster">
<title>cluster_PrestationsModule_imports</title>
<polygon fill="none" stroke="#000000" points="52,-78 52,-130 228,-130 228,-78 52,-78"/>
</g>
<!-- PrestationsInterfaceComponent -->
<g id="node1" class="node">
<title>PrestationsInterfaceComponent</title>
<polygon fill="#ffffb3" stroke="#000000" points="436.4972,-122 243.5028,-122 243.5028,-86 436.4972,-86 436.4972,-122"/>
<text text-anchor="middle" x="340" y="-99.8" font-family="Times,serif" font-size="14.00" fill="#000000">PrestationsInterfaceComponent</text>
</g>
<!-- PrestationsModule -->
<g id="node2" class="node">
<title>PrestationsModule</title>
<polygon fill="#8dd3c7" stroke="#000000" points="300.4832,-187 297.4832,-191 276.4832,-191 273.4832,-187 179.5168,-187 179.5168,-151 300.4832,-151 300.4832,-187"/>
<text text-anchor="middle" x="240" y="-164.8" font-family="Times,serif" font-size="14.00" fill="#000000">PrestationsModule</text>
</g>
<!-- PrestationsInterfaceComponent&#45;&gt;PrestationsModule -->
<g id="edge1" class="edge">
<title>PrestationsInterfaceComponent&#45;&gt;PrestationsModule</title>
<path fill="none" stroke="#000000" d="M272.1217,-122.1061C272.1217,-122.1061 272.1217,-140.991 272.1217,-140.991"/>
<polygon fill="#000000" stroke="#000000" points="268.6217,-140.9909 272.1217,-150.991 275.6217,-140.991 268.6217,-140.9909"/>
</g>
<!-- PrestationRoutingModule -->
<g id="node3" class="node">
<title>PrestationRoutingModule</title>
<polygon fill="#8dd3c7" stroke="#000000" points="220.1568,-122 217.1568,-126 196.1568,-126 193.1568,-122 59.8432,-122 59.8432,-86 220.1568,-86 220.1568,-122"/>
<text text-anchor="middle" x="140" y="-99.8" font-family="Times,serif" font-size="14.00" fill="#000000">PrestationRoutingModule</text>
</g>
<!-- PrestationRoutingModule&#45;&gt;PrestationsModule -->
<g id="edge2" class="edge">
<title>PrestationRoutingModule&#45;&gt;PrestationsModule</title>
<path fill="none" stroke="#000000" d="M199.9183,-122.1061C199.9183,-122.1061 199.9183,-140.991 199.9183,-140.991"/>
<polygon fill="#000000" stroke="#000000" points="196.4184,-140.9909 199.9183,-150.991 203.4184,-140.991 196.4184,-140.9909"/>
</g>
</g>
</svg>
